HIERARCHY
ROOT hip
{
  OFFSET 0 0 0
  CHANNELS 6 Xposition Yposition Zposition Zrotation Yrotation Xrotation
  JOINT abdomen
  {
    OFFSET 0 20.6881 -0.73152
    CHANNELS 3 Zrotation Xrotation Yrotation
    JOINT chest
    {
      OFFSET 0 11.7043 -0.48768
      CHANNELS 3 Zrotation Xrotation Yrotation
      JOINT neck
      {
        OFFSET 0 22.1894 -2.19456
        CHANNELS 3 Zrotation Xrotation Yrotation
        JOINT head
        {
          OFFSET -0.24384 7.07133 1.2192
          CHANNELS 3 Zrotation Xrotation Yrotation
          JOINT leftEye
          {
            OFFSET 4.14528 8.04674 8.04672
            CHANNELS 3 Zrotation Xrotation Yrotation
            End Site
            {
              OFFSET 1 0 0
            }
          }
          JOINT rightEye
          {
            OFFSET -3.6576 8.04674 8.04672
            CHANNELS 3 Zrotation Xrotation Yrotation
            End Site
            {
              OFFSET 1 0 0
            }
          }
        }
      }
      JOINT rCollar
      {
        OFFSET -2.68224 19.2634 -4.8768
        CHANNELS 3 Zrotation Xrotation Yrotation
        JOINT rShldr
        {
          OFFSET -8.77824 -1.95073 1.46304
          CHANNELS 3 Zrotation Xrotation Yrotation
          JOINT rForeArm
          {
            OFFSET -28.1742 -1.7115 0.48768
            CHANNELS 3 Zrotation Xrotation Yrotation
            JOINT rHand
            {
              OFFSET -22.5879 0.773209 7.07136
              CHANNELS 3 Zrotation Xrotation Yrotation
              JOINT rThumb1
              {
                OFFSET -1.2192 -0.487915 3.41376
                CHANNELS 3 Zrotation Xrotation Yrotation
                JOINT rThumb2
                {
                  OFFSET -3.37035 -0.52449 3.41376
                  CHANNELS 3 Zrotation Xrotation Yrotation
                  End Site
                  {
                    OFFSET -1.78271 -1.18214 1.43049
                  }
                }
              }
              JOINT rIndex1
              {
                OFFSET -7.75947 0.938293 5.60832
                CHANNELS 3 Zrotation Xrotation Yrotation
                JOINT rIndex2
                {
                  OFFSET -2.54057 -0.884171 1.56538
                  CHANNELS 3 Zrotation Xrotation Yrotation
                  End Site
                  {
                    OFFSET -1.62519 -0.234802 1.16502
                  }
                }
              }
              JOINT rMid1
              {
                OFFSET -8.24714 1.18213 3.41376
                CHANNELS 3 Zrotation Xrotation Yrotation
                JOINT rMid2
                {
                  OFFSET -3.10165 -0.590103 1.0647
                  CHANNELS 3 Zrotation Xrotation Yrotation
                  End Site
                  {
                    OFFSET -2.48547 -0.328903 0.83742
                  }
                }
              }
              JOINT rRing1
              {
                OFFSET -8.82822 0.546677 1.51678
                CHANNELS 3 Zrotation Xrotation Yrotation
                JOINT rRing2
                {
                  OFFSET -2.60934 -0.819778 -0.0198488
                  CHANNELS 3 Zrotation Xrotation Yrotation
                  End Site
                  {
                    OFFSET -2.33842 -0.294052 0.168128
                  }
                }
              }
              JOINT rPinky1
              {
                OFFSET -8.27202 -0.0477905 -0.4584
                CHANNELS 3 Zrotation Xrotation Yrotation
                JOINT rPinky2
                {
                  OFFSET -1.82734 -0.647385 -0.700984
                  CHANNELS 3 Zrotation Xrotation Yrotation
                  End Site
                  {
                    OFFSET -1.69225 -0.51767 -0.607171
                  }
                }
              }
            }
          }
        }
      }
      JOINT lCollar
      {
        OFFSET 2.68224 19.2634 -4.8768
        CHANNELS 3 Zrotation Xrotation Yrotation
        JOINT lShldr
        {
          OFFSET 8.77824 -1.95073 1.46304
          CHANNELS 3 Zrotation Xrotation Yrotation
          JOINT lForeArm
          {
            OFFSET 28.1742 -1.7115 0.48768
            CHANNELS 3 Zrotation Xrotation Yrotation
            JOINT lHand
            {
              OFFSET 22.5879 0.773209 7.07136
              CHANNELS 3 Zrotation Xrotation Yrotation
              JOINT lThumb1
              {
                OFFSET 1.2192 -0.487915 3.41376
                CHANNELS 3 Zrotation Xrotation Yrotation
                JOINT lThumb2
                {
                  OFFSET 3.37035 -0.52449 3.41376
                  CHANNELS 3 Zrotation Xrotation Yrotation
                  End Site
                  {
                    OFFSET 1.78271 -1.18214 1.43049
                  }
                }
              }
              JOINT lIndex1
              {
                OFFSET 7.75947 0.938293 5.60832
                CHANNELS 3 Zrotation Xrotation Yrotation
                JOINT lIndex2
                {
                  OFFSET 2.54057 -0.884171 1.56538
                  CHANNELS 3 Zrotation Xrotation Yrotation
                  End Site
                  {
                    OFFSET 1.62519 -0.234802 1.16502
                  }
                }
              }
              JOINT lMid1
              {
                OFFSET 8.24714 1.18213 3.41376
                CHANNELS 3 Zrotation Xrotation Yrotation
                JOINT lMid2
                {
                  OFFSET 3.10165 -0.590103 1.0647
                  CHANNELS 3 Zrotation Xrotation Yrotation
                  End Site
                  {
                    OFFSET 2.48547 -0.328903 0.83742
                  }
                }
              }
              JOINT lRing1
              {
                OFFSET 8.82822 0.546677 1.51678
                CHANNELS 3 Zrotation Xrotation Yrotation
                JOINT lRing2
                {
                  OFFSET 2.60934 -0.819778 -0.0198488
                  CHANNELS 3 Zrotation Xrotation Yrotation
                  End Site
                  {
                    OFFSET 2.33842 -0.294052 0.168128
                  }
                }
              }
              JOINT lPinky1
              {
                OFFSET 8.27202 -0.0477905 -0.4584
                CHANNELS 3 Zrotation Xrotation Yrotation
                JOINT lPinky2
                {
                  OFFSET 1.82734 -0.647385 -0.700984
                  CHANNELS 3 Zrotation Xrotation Yrotation
                  End Site
                  {
                    OFFSET 1.69225 -0.51767 -0.607171
                  }
                }
              }
            }
          }
        }
      }
    }
  }
  JOINT rButtock
  {
    OFFSET -8.77824 4.35084 1.2192
    CHANNELS 3 Zrotation Xrotation Yrotation
    JOINT rThigh
    {
      OFFSET 0 -1.70687 -2.19456
      CHANNELS 3 Zrotation Xrotation Yrotation
      JOINT rShin
      {
        OFFSET 0 -36.8199 0.73152
        CHANNELS 3 Zrotation Xrotation Yrotation
        JOINT rFoot
        {
          OFFSET 0.73152 -45.1104 -5.12064
          CHANNELS 3 Zrotation Xrotation Yrotation
          End Site
          {
            OFFSET -1.1221 -3.69964 12.103
          }
        }
      }
    }
  }
  JOINT lButtock
  {
    OFFSET 8.77824 4.35084 1.2192
    CHANNELS 3 Zrotation Xrotation Yrotation
    JOINT lThigh
    {
      OFFSET 0 -1.70687 -2.19456
      CHANNELS 3 Zrotation Xrotation Yrotation
      JOINT lShin
      {
        OFFSET 0 -36.8199 0.73152
        CHANNELS 3 Zrotation Xrotation Yrotation
        JOINT lFoot
        {
          OFFSET -0.73152 -45.1104 -5.12064
          CHANNELS 3 Zrotation Xrotation Yrotation
          End Site
          {
            OFFSET 1.1221 -3.69964 12.103
          }
        }
      }
    }
  }
}
MOTION
Frames:	6
Frame Time:	0.00833333
-151.684 65.557 38.2967 180.401 52.6033 202.655 -21.0052 40.99 3.10957 2.50023 -0.301478 0.0604705 -30.1895 10.5787 -18.8649 102.722 -37.8095 4.12815 -0.0 0.0 0.0 -0.0 0.0 0.0 5.49789e-13 -6.3533e-13 -4.37991e-13 86.3232 -0.502935 8.40219 -28.34 -37.7656 80.0736 -5.14331 -52.2076 -10.4542 -1.33454e-09 4.88636e-10 -2.8848e-09 -2.18355e-09 7.8312e-10 -5.0173e-09 -1.33454e-09 4.8864e-10 -2.88481e-09 7.73091 5.47488 0.417314 -1.33454e-09 4.88639e-10 -2.8848e-09 2.90554 0.965183 0.102902 -1.33454e-09 4.88639e-10 -2.8848e-09 10.2786 0.731801 0.0259123 -1.33454e-09 4.88638e-10 -2.88479e-09 2.22167 -0.733487 -0.20892 5.49698e-13 -6.35395e-13 -4.38172e-13 -74.1241 9.64938 -18.3002 27.0649 -26.5464 -61.711 163.52 19.3247 -177.175 7.60955e-11 -3.97004e-10 -9.82036e-10 9.29001e-12 -6.72297e-10 -1.66149e-09 7.60915e-11 -3.97009e-10 -9.82028e-10 -7.73091 5.47488 -0.417314 7.60967e-11 -3.97004e-10 -9.82033e-10 -2.90554 0.965183 -0.102902 7.60864e-11 -3.97003e-10 -9.82036e-10 -10.2786 0.731801 -0.0259123 7.61014e-11 -3.97001e-10 -9.82045e-10 -2.22167 -0.733487 0.20892 -2.03217e-16 0.0 -3.88251e-19 -18.535 -38.0327 -17.0619 -167.069 84.6594 167.198 -1.8823 -1.70744 -6.96319 2.03217e-16 0.0 3.88251e-19 7.14795 -47.5305 14.5251 14.8779 86.0455 -15.1145 -5.49295 -17.402 -12.8283
-149.994 65.5002 36.8796 180.688 51.8854 202.454 -20.5923 41.6377 1.85938 3.22701 -0.503181 -0.238385 -30.3176 9.79474 -18.7186 101.478 -36.7689 3.23006 -0.0 0.0 0.0 -0.0 0.0 0.0 1.57112e-13 -3.84454e-13 -1.94548e-13 86.4066 0.556534 8.18448 -28.2651 -38.5793 81.4681 -5.39282 -52.9994 -10.7656 -6.0247e-10 2.42454e-10 -1.13073e-09 -9.95434e-10 4.09902e-10 -1.97336e-09 -6.02471e-10 2.42457e-10 -1.13074e-09 7.73091 5.47488 0.417314 -6.02471e-10 2.42457e-10 -1.13073e-09 2.90554 0.965183 0.102902 -6.02468e-10 2.42457e-10 -1.13073e-09 10.2786 0.731801 0.0259123 -6.02468e-10 2.42457e-10 -1.13072e-09 2.22167 -0.733487 -0.20892 1.57e-13 -3.84495e-13 -1.94725e-13 -73.5781 9.40842 -21.9619 27.2935 -27.3523 -62.9561 163.575 18.2634 -177.342 -1.14682e-10 2.17502e-10 -4.14565e-10 -2.23581e-10 3.66085e-10 -6.86453e-10 -1.14684e-10 2.17497e-10 -4.14556e-10 -7.73091 5.47488 -0.417314 -1.14681e-10 2.17502e-10 -4.14562e-10 -2.90554 0.965183 -0.102902 -1.1469e-10 2.17503e-10 -4.14568e-10 -10.2786 0.731801 -0.0259123 -1.14674e-10 2.17505e-10 -4.14578e-10 -2.22167 -0.733487 0.20892 -2.03217e-16 0.0 -3.88251e-19 -19.4079 -41.889 -17.5808 -171.251 81.7904 171.405 -2.32054 -2.57149 -8.16726 2.03217e-16 0.0 3.88251e-19 6.41196 -44.6997 13.4387 10.8188 84.8201 -11.2041 -5.32049 -17.3458 -12.8234
-148.246 65.3876 35.4287 181.033 51.4319 202.142 -20.0943 42.3154 0.562314 3.97907 -0.77008 -0.53705 -30.435 8.94058 -18.5545 100.121 -35.6752 2.3696 -0.0 0.0 0.0 -0.0 0.0 0.0 -2.59216e-13 -1.03551e-13 6.90901e-14 86.3279 1.79543 8.3196 -28.1756 -39.3523 82.7768 -5.46434 -53.2442 -10.8581 2.16255e-10 -2.9018e-11 7.77324e-10 3.36644e-10 -6.54113e-12 1.33924e-09 2.16256e-10 -2.90167e-11 7.77324e-10 7.73091 5.47488 0.417314 2.16254e-10 -2.90155e-11 7.77324e-10 2.90554 0.965183 0.102902 2.16257e-10 -2.90159e-11 7.77327e-10 10.2786 0.731801 0.0259123 2.16256e-10 -2.90156e-11 7.7733e-10 2.22167 -0.733487 -0.20892 -2.59358e-13 -1.03565e-13 6.89064e-14 -73.1711 9.0174 -25.2194 27.4834 -28.095 -64.1507 163.621 17.2749 -177.496 -2.93116e-10 8.55203e-10 1.87676e-10 -4.32666e-10 1.44181e-09 3.47767e-10 -2.93116e-10 8.55199e-10 1.87687e-10 -7.73091 5.47488 -0.417314 -2.93115e-10 8.55203e-10 1.8768e-10 -2.90554 0.965183 -0.102902 -2.93122e-10 8.55203e-10 1.87671e-10 -10.2786 0.731801 -0.0259123 -2.93106e-10 8.55206e-10 1.87659e-10 -2.22167 -0.733487 0.20892 -2.03217e-16 0.0 -3.88251e-19 -20.3162 -45.6948 -17.9695 -172.958 79.4339 173.148 -2.78745 -3.62283 -9.18272 2.03217e-16 0.0 3.88251e-19 5.78462 -41.6659 12.509 8.08076 83.4195 -8.63567 -5.10471 -17.2194 -12.7726
-146.446 65.2972 33.8562 181.073 51.1598 201.482 -19.5679 42.9241 -0.821901 4.70328 -1.11428 -0.845849 -30.5523 8.05479 -18.3565 98.6159 -34.5176 1.53774 -0.0 0.0 0.0 -0.0 0.0 0.0 -5.02415e-13 6.59959e-14 2.25919e-13 86.1335 3.2192 8.80608 -28.0597 -40.0879 84.0794 -5.31198 -52.8118 -10.6748 8.32071e-10 -1.91745e-10 2.02526e-09 1.34749e-09 -2.58487e-10 3.50904e-09 8.32073e-10 -1.91744e-10 2.02526e-09 7.73091 5.47488 0.417314 8.3207e-10 -1.91743e-10 2.02526e-09 2.90554 0.965183 0.102902 8.32073e-10 -1.91743e-10 2.02526e-09 10.2786 0.731801 0.0259123 8.32071e-10 -1.91742e-10 2.02526e-09 2.22167 -0.733487 -0.20892 -5.02573e-13 6.59961e-14 2.2572e-13 -72.7838 8.48658 -27.8679 27.6194 -28.6883 -65.1591 163.654 16.4952 -177.615 -4.00836e-10 1.29483e-09 5.24041e-10 -5.60112e-10 2.17865e-09 9.32505e-10 -4.00834e-10 1.29483e-09 5.24054e-10 -7.73091 5.47488 -0.417314 -4.00835e-10 1.29483e-09 5.24044e-10 -2.90554 0.965183 -0.102902 -4.00841e-10 1.29483e-09 5.24034e-10 -10.2786 0.731801 -0.0259123 -4.00825e-10 1.29484e-09 5.24022e-10 -2.22167 -0.733487 0.20892 -2.03217e-16 0.0 -3.88251e-19 -21.3778 -49.371 -18.268 -173.785 77.7219 174.014 -3.2274 -4.63235 -10.0501 2.03217e-16 0.0 3.88251e-19 5.03813 -38.4491 11.5979 6.13023 81.7697 -6.8653 -4.8718 -17.1519 -12.6491
-144.62 65.2209 32.1189 180.779 50.8648 200.484 -19.1115 43.6552 -2.3788 5.41634 -1.62212 -1.19286 -30.6662 7.16181 -18.1089 97.0167 -33.2482 0.721157 -0.0 0.0 0.0 -0.0 0.0 0.0 -5.04736e-13 1.15276e-13 2.37595e-13 85.7567 4.80302 9.69195 -27.9211 -40.7817 85.3622 -4.91753 -51.5269 -10.1789 1.15745e-09 -1.91861e-10 2.3591e-09 1.89803e-09 -2.64838e-10 4.09637e-09 1.15745e-09 -1.91861e-10 2.3591e-09 7.73091 5.47488 0.417314 1.15745e-09 -1.9186e-10 2.3591e-09 2.90554 0.965183 0.102902 1.15745e-09 -1.9186e-10 2.3591e-09 10.2786 0.731801 0.0259123 1.15745e-09 -1.91859e-10 2.3591e-09 2.22167 -0.733487 -0.20892 -5.04883e-13 1.15273e-13 2.37366e-13 -72.3721 7.69717 -29.8809 27.7169 -29.1423 -65.9263 163.674 15.9981 -177.69 -4.37242e-10 1.5498e-09 4.40944e-10 -6.18492e-10 2.5918e-09 8.18223e-10 -4.37241e-10 1.5498e-09 4.40957e-10 -7.73091 5.47488 -0.417314 -4.37241e-10 1.5498e-09 4.40945e-10 -2.90554 0.965183 -0.102902 -4.37247e-10 1.5498e-09 4.40936e-10 -10.2786 0.731801 -0.0259123 -4.37232e-10 1.5498e-09 4.40926e-10 -2.22167 -0.733487 0.20892 -2.03217e-16 0.0 -3.88251e-19 -22.6287 -52.8106 -18.3884 -174.199 76.6846 174.473 -3.66416 -5.64065 -10.8678 2.03217e-16 0.0 3.88251e-19 4.0923 -34.9071 10.6279 4.68819 79.8581 -5.62645 -4.66203 -17.2633 -12.5046
-142.751 65.1481 30.3062 180.486 50.7879 199.537 -18.6417 44.4801 -4.08009 6.13184 -2.25927 -1.56441 -30.7692 6.23508 -17.8255 95.3252 -31.8892 -0.0711269 -0.0 0.0 0.0 -0.0 0.0 0.0 -3.76219e-13 1.10098e-13 1.73346e-13 85.1373 6.54027 10.9715 -27.7734 -41.4457 86.5806 -4.37008 -49.5005 -9.46613 1.35026e-09 -1.06895e-10 2.22533e-09 2.24136e-09 -1.44947e-10 3.8751e-09 1.35027e-09 -1.06893e-10 2.22532e-09 7.73091 5.47488 0.417314 1.35026e-09 -1.06894e-10 2.22533e-09 2.90554 0.965183 0.102902 1.35027e-09 -1.06894e-10 2.22532e-09 10.2786 0.731801 0.0259123 1.35026e-09 -1.06893e-10 2.22532e-09 2.22167 -0.733487 -0.20892 -3.76342e-13 1.1008e-13 1.73073e-13 -72.0204 6.71907 -31.3648 27.7957 -29.5179 -66.5149 163.687 15.6988 -177.736 -4.28476e-10 1.71398e-09 1.23201e-10 -6.29326e-10 2.84341e-09 3.14173e-10 -4.28476e-10 1.71398e-09 1.23215e-10 -7.73091 5.47488 -0.417314 -4.28476e-10 1.71398e-09 1.232e-10 -2.90554 0.965183 -0.102902 -4.28482e-10 1.71398e-09 1.23194e-10 -10.2786 0.731801 -0.0259123 -4.28468e-10 1.71398e-09 1.23185e-10 -2.22167 -0.733487 0.20892 -2.03217e-16 0.0 -3.88251e-19 -23.8976 -56.0943 -18.2483 -174.371 76.2634 174.701 -4.10997 -6.73627 -11.5874 2.03217e-16 0.0 3.88251e-19 3.09425 -31.0755 9.69616 3.58385 77.7271 -4.74966 -4.44945 -17.4563 -12.3336
